<svg width="206" height="231" viewBox="0 0 206 231" fill="none" xmlns="http://www.w3.org/2000/svg">
<path d="M143.143 84C143.143 84 170.975 84 170.975 126.775C170.975 169.55 143.143 169.55 143.143 169.55C143.143 169.55 115.311 169.55 115.311 126.775C115.311 84 143.143 84 143.143 84Z" fill="#FFC131"/>
<ellipse cx="144.071" cy="126.775" rx="28.1" ry="42.775" fill="#24C8DB"/>
<path d="M57.2 84C57.2 84 85.032 84 85.032 126.775C85.032 169.55 57.2 169.55 57.2 169.55C57.2 169.55 29.368 169.55 29.368 126.775C29.368 84 57.2 84 57.2 84Z" fill="#FFC131"/>
<ellipse cx="58.128" cy="126.775" rx="28.1" ry="42.775" fill="#24C8DB"/>
<path d="M100.172 84C100.172 84 128.004 84 128.004 126.775C128.004 169.55 100.172 169.55 100.172 169.55C100.172 169.55 72.34 169.55 72.34 126.775C72.34 84 100.172 84 100.172 84Z" fill="#FFC131"/>
<ellipse cx="101.1" cy="126.775" rx="28.1" ry="42.775" fill="#24C8DB"/>
</svg>